<svg width="216" height="207" fill="none" xmlns="http://www.w3.org/2000/svg"><path d="M16.512 97.319c.036-6.282.054-9.422 1.287-12.134a15.483 15.483 0 0 1 3.97-5.287c2.28-1.965 5.347-2.933 11.48-4.867l161.747-35.407c5.313.501 7.063.626 10.625 1.126 3.563.5 6.067 2.943 7.277 4.773 1.64 2.483 1.619 6.407 1.575 14.255l-.386 57.106c-.036 6.448-.054 9.672-1.333 12.432a15.506 15.506 0 0 1-4.11 5.343c-2.355 1.966-8.085 3.403-11.648 4.09l-163 26.781c-6.375.843-10.984.843-14.805.843-3.82 0-10.007-.843-10.007-.843l7.328-68.211Z" fill="url(#a)"/><path d="M1.845 96.377c.048-7.135.073-10.703 1.54-13.669a15.816 15.816 0 0 1 4.655-5.603c2.648-1.987 6.156-2.67 13.17-4.035l163.773-31.868c7.084-1.379 10.626-2.068 13.284-1.093a8.964 8.964 0 0 1 4.651 3.85c1.451 2.427 1.428 6.03 1.383 13.236l-.364 57.659c-.046 7.361-.069 11.041-1.598 14.064a15.832 15.832 0 0 1-4.834 5.658c-2.743 1.975-6.359 2.554-13.591 3.711L20.152 164.491c-6.869 1.099-10.303 1.649-12.868.628a8.96 8.96 0 0 1-4.474-3.865c-1.39-2.396-1.366-5.891-1.319-12.882l.354-51.995Z" fill="#11837C"/><circle opacity=".2" r="7.741" transform="matrix(.98281 -.18462 -.00773 .99997 174.876 68.267)" fill="#fff"/><circle r="2.58" transform="matrix(.98281 -.18462 -.00773 .99997 174.875 68.266)" fill="#fff"/><path d="m20.106 90.702 1.905-.324-.242 9.797-1.904.324.241-9.797Zm8.703-1.483 1.78-.303-.241 9.797-1.78.303.02-.826c-.542.771-1.295 1.239-2.261 1.403-.93.158-1.717-.06-2.362-.657-.635-.607-.94-1.428-.915-2.464.026-1.036.374-1.964 1.045-2.784.68-.831 1.485-1.326 2.414-1.485.966-.164 1.703.05 2.21.641l.09-3.625Zm-3.475 8.286c.359.3.814.404 1.366.31a2.28 2.28 0 0 0 1.38-.778c.368-.435.56-.941.574-1.52.014-.578-.154-1.019-.504-1.322-.35-.312-.8-.42-1.352-.327a2.31 2.31 0 0 0-1.394.795 2.318 2.318 0 0 0-.573 1.506c-.015.578.153 1.023.503 1.336Zm8.076-2.06c.218.837.856 1.165 1.914.985.68-.117 1.201-.438 1.563-.964l1.414.596c-.705 1.114-1.72 1.784-3.045 2.01-1.141.194-2.048 0-2.72-.582-.674-.582-.997-1.405-.97-2.469.025-1.054.387-1.99 1.085-2.805a4.317 4.317 0 0 1 2.649-1.51c1.012-.173 1.836.04 2.472.638.645.596.954 1.416.928 2.461a4.549 4.549 0 0 1-.087.754l-5.203.886Zm.007-1.394 3.52-.6c-.09-.459-.293-.777-.61-.955-.306-.18-.662-.236-1.067-.167a2.225 2.225 0 0 0-1.197.58 2.228 2.228 0 0 0-.646 1.142Zm11.665-4.817 1.78-.304-.172 6.998-1.78.304.02-.826c-.55.772-1.309 1.24-2.275 1.405-.92.157-1.703-.063-2.348-.66-.635-.606-.94-1.428-.915-2.463.026-1.036.374-1.964 1.045-2.785.68-.831 1.48-1.325 2.4-1.482.966-.165 1.708.048 2.225.638l.02-.825Zm-3.406 5.486c.35.303.8.407 1.353.313a2.28 2.28 0 0 0 1.38-.779c.377-.436.572-.943.587-1.521.014-.579-.158-1.019-.518-1.32-.35-.312-.8-.42-1.352-.327a2.255 2.255 0 0 0-1.38.793 2.319 2.319 0 0 0-.573 1.505c-.015.579.153 1.024.503 1.336Z" fill="#fff"/><defs><radialGradient id="a" cx="0" cy="0" r="1" gradientUnits="userSpaceOnUse" gradientTransform="matrix(-4.5 143.3754 -486.44846 -15.26771 223.496 39.624)"><stop offset=".009" stop-color="#11837C"/><stop offset=".073" stop-color="#005653"/><stop offset=".571" stop-color="#014A45"/><stop offset=".647" stop-color="#11837C"/><stop offset=".687" stop-color="#014A45"/><stop offset="1" stop-color="#004945"/></radialGradient></defs></svg>