<svg width="183" height="199" fill="none" xmlns="http://www.w3.org/2000/svg"><path d="M16.523 80.42c.037-6.281.055-9.422 1.287-12.133a15.483 15.483 0 0 1 3.97-5.288c2.28-1.965 5.347-2.932 11.481-4.867L170.875 6.5c1.078.905 2.029 2.049 2.814 3.158.351.498-.528-.746-.475-.673.402.55-.288-.379.122.164.055.072 2.082 2.672 6.138 7.871.154.198.3.4.436.605 1.64 2.482 1.618 6.406 1.575 14.255l-.387 70.106c-.035 6.448-.053 9.672-1.333 12.432a15.49 15.49 0 0 1-4.109 5.343c-2.355 1.965-5.513 2.87-11.828 4.679l-131.05 37.537c-7.497 2.147-11.244 3.22-14.093 2.401-2.102-.604-3.497-1.19-3.497-1.19-2.813-1.211-5.75-3.875-8.313-4.813l9.648-77.954Z" fill="url(#a)"/><path d="M1.89 74.106c.037-6.344.055-9.516 1.294-12.263A15.796 15.796 0 0 1 7.18 56.47c2.296-2.005 5.389-3.017 11.575-5.04l133.74-43.736c7.89-2.58 11.835-3.87 14.852-3.103 2.223.566 4.087 1.875 5.338 3.75 1.696 2.542 1.673 6.588 1.629 14.679l-.394 71.391c-.036 6.546-.054 9.819-1.35 12.626a15.822 15.822 0 0 1-4.166 5.442c-2.388 2.006-5.591 2.942-11.999 4.814L22.669 156.376c-7.684 2.246-11.527 3.368-14.45 2.542-2.156-.61-3.954-1.929-5.157-3.784-1.63-2.515-1.607-6.44-1.561-14.291l.389-66.737Z" fill="#5C0675"/><circle opacity=".2" r="7.741" transform="matrix(.98281 -.18462 -.00773 .99997 146.892 37.367)" fill="#fff"/><circle r="2.58" transform="matrix(.98281 -.18462 -.00773 .99997 146.891 37.367)" fill="#fff"/><path d="m27.038 78.936-.707-1.6-3.76 1.056-.426 1.917-2.008.564 2.518-10.696 2.305-.646 4.1 8.838-2.022.567Zm-4.019-2.51 2.588-.727-1.614-3.628-.974 4.354Zm9.914-6.477c.736-.207 1.364-.121 1.881.257.526.375.826 1.014.898 1.917l.344 4.284-1.739.488-.326-4.061c-.037-.466-.187-.785-.449-.959-.263-.183-.596-.218-1-.104-.45.126-.798.37-1.044.735-.247.364-.347.834-.3 1.411l.302 3.768-1.74.488-.559-6.978 1.739-.488.063.782c.37-.77 1.013-1.283 1.93-1.54Zm4.709-1.978a.91.91 0 0 1-.781-.109.91.91 0 0 1-.373-.694 1.338 1.338 0 0 1 .247-.869c.198-.284.44-.466.728-.547.297-.083.557-.042.782.124a.885.885 0 0 1 .386.69c.024.298-.063.589-.26.873a1.3 1.3 0 0 1-.73.532Zm-.236 8.057-.56-6.977 1.739-.488.56 6.977-1.74.488Zm10.074-10.16c.773-.217 1.41-.13 1.91.263.509.39.798 1.022.868 1.897l.345 4.298-1.739.488-.334-4.173c-.034-.419-.159-.716-.375-.894-.217-.177-.505-.215-.864-.114-.395.111-.695.333-.898.666-.194.33-.27.751-.229 1.263l.315 3.921-1.74.488-.334-4.173c-.034-.418-.159-.716-.375-.893-.216-.177-.504-.216-.864-.115-.386.108-.685.33-.897.666-.203.333-.284.755-.243 1.266l.314 3.922-1.739.488-.56-6.978 1.74-.488.059.74c.354-.737.954-1.224 1.798-1.46.827-.233 1.465-.07 1.914.49.396-.796 1.038-1.319 1.928-1.568Zm9.028-2.333 1.739-.488.56 6.978-1.74.488-.065-.824c-.467.826-1.172 1.37-2.116 1.635-.898.252-1.7.116-2.403-.41-.696-.537-1.085-1.322-1.168-2.355-.083-1.033.166-1.992.748-2.878.59-.898 1.333-1.473 2.232-1.725.944-.265 1.703-.13 2.279.402l-.066-.823Zm-2.814 5.812c.38.265.839.321 1.378.17a2.28 2.28 0 0 0 1.29-.918c.33-.474.472-.998.426-1.575-.046-.577-.264-.996-.652-1.258-.38-.274-.84-.336-1.38-.184-.539.151-.969.462-1.29.932-.32.461-.458.98-.412 1.557.046.577.26 1.002.64 1.276Zm9.989-6.055-1.523.427.233 2.903c.019.242.091.402.217.48.126.08.302.097.528.052.226-.053.504-.136.835-.248l.13 1.633c-1.183.475-2.037.595-2.561.362-.516-.236-.812-.833-.888-1.792l-.233-2.902-1.173.329-.139-1.73 1.173-.33-.113-1.41 1.695-1.031.157 1.954 1.523-.428.139 1.73Zm1.748-3.116a.91.91 0 0 1-.781-.11.91.91 0 0 1-.373-.694 1.338 1.338 0 0 1 .248-.868c.197-.284.44-.466.728-.547.296-.083.557-.042.781.123a.885.885 0 0 1 .386.69c.024.298-.063.59-.26.873a1.3 1.3 0 0 1-.73.533Zm-.236 8.057-.56-6.978 1.739-.488.56 6.978-1.739.488Zm8.869-3.373c-.636.901-1.452 1.492-2.45 1.772-.997.28-1.87.163-2.619-.35-.74-.525-1.152-1.304-1.235-2.336-.083-1.033.19-1.999.815-2.897.635-.91 1.45-1.506 2.448-1.786s1.871-.158 2.62.364c.75.513 1.165 1.286 1.248 2.318.083 1.033-.193 2.005-.827 2.915Zm-3.942-.164c.38.264.83.323 1.351.177.522-.146.943-.45 1.264-.91.322-.462.46-.972.415-1.53-.045-.558-.257-.97-.636-1.234-.38-.264-.83-.323-1.352-.177-.52.146-.942.45-1.264.91a2.306 2.306 0 0 0-.4 1.526c.044.558.252.97.622 1.238Zm9.31-7.791c.736-.207 1.363-.121 1.88.257.527.375.826 1.014.899 1.917l.343 4.284-1.738.488-.326-4.061c-.038-.465-.187-.785-.45-.959-.262-.183-.596-.218-1-.104-.45.126-.797.37-1.044.735-.246.364-.346.834-.3 1.411l.302 3.768-1.739.488-.56-6.978 1.74-.488.062.782c.37-.77 1.014-1.283 1.93-1.54Z" fill="#fff"/><defs><radialGradient id="a" cx="0" cy="0" r="1" gradientUnits="userSpaceOnUse" gradientTransform="rotate(101.427 95.182 88.72) scale(191.802 216.025)"><stop stop-color="#920AB9"/><stop offset=".13" stop-color="#590272"/><stop offset=".43" stop-color="#430256"/><stop offset=".521" stop-color="#6B2C7D"/><stop offset=".592" stop-color="#3F0251"/><stop offset="1" stop-color="#430256"/></radialGradient></defs></svg>