<svg width="217" height="210" fill="none" xmlns="http://www.w3.org/2000/svg"><path d="M15.726 101.2c.037-6.282.055-9.422 1.287-12.134a15.484 15.484 0 0 1 3.97-5.287c2.28-1.965 5.347-2.933 11.481-4.867l163.974-39.599c3.437 1 6.653 2.183 9.808 3.063 3.155.88 5.657 3.198 6.867 5.028 1.64 2.482 1.619 6.407 1.575 14.255l-.387 52.106c-.035 6.448-.053 9.672-1.333 12.432a15.49 15.49 0 0 1-4.109 5.343c-2.355 1.966-8.086 3.402-11.648 4.09l-164 32.781c-6.375.843-10.984.843-14.805.843-3.82 0-10.008-.843-10.008-.843l7.329-67.211Z" fill="url(#a)"/><path d="M1.059 103.414c.049-6.857.074-10.285 1.462-13.176a15.818 15.818 0 0 1 4.43-5.529c2.527-1.996 5.894-2.801 12.627-4.41L183.34 41.151c7.365-1.76 11.047-2.641 13.827-1.73a8.967 8.967 0 0 1 4.88 3.828c1.532 2.47 1.507 6.22 1.457 13.718l-.35 52.638c-.047 7.074-.071 10.611-1.52 13.561a15.81 15.81 0 0 1-4.605 5.589c-2.622 1.99-6.099 2.701-13.053 4.123L20.226 166.36c-7.151 1.463-10.727 2.194-13.414 1.232a8.968 8.968 0 0 1-4.702-3.85c-1.468-2.44-1.442-6.079-1.39-13.355l.339-46.973Z" fill="#0C7B93"/><circle opacity=".2" r="7.741" transform="matrix(.98281 -.18462 -.00773 .99997 174.091 72.147)" fill="#fff"/><circle r="2.58" transform="matrix(.98281 -.18462 -.00773 .99997 174.09 72.146)" fill="#fff"/><path d="m24.608 103.224-1.916-3.036-1.444.272-.025 3.402-1.898.358.07-9.8 3.852-.726c.89-.167 1.645.007 2.264.525.619.517.925 1.223.919 2.12-.005.606-.178 1.203-.521 1.79a4.283 4.283 0 0 1-1.357 1.415l2.106 3.294-2.05.386Zm-3.327-7.356-.02 2.898 1.953-.368c.357-.067.666-.265.925-.593.258-.338.39-.708.392-1.11.003-.4-.123-.717-.378-.948-.255-.232-.56-.314-.918-.247l-1.954.368Zm7.445 3.826c.232.833.875 1.15 1.93.951.679-.128 1.194-.458 1.546-.99l1.425.57c-.686 1.126-1.69 1.814-3.01 2.063-1.137.214-2.047.036-2.73-.534-.683-.57-1.02-1.388-1.013-2.452.007-1.054.353-1.996 1.037-2.823a4.318 4.318 0 0 1 2.621-1.557c1.01-.19 1.837.008 2.483.595.655.585.98 1.4.972 2.445a4.546 4.546 0 0 1-.075.755l-5.186.977Zm-.018-1.394 3.509-.661c-.098-.457-.306-.772-.626-.945-.31-.175-.667-.224-1.07-.148-.477.09-.873.29-1.186.601a2.228 2.228 0 0 0-.627 1.153Zm7.76-2.315c-.002.187.116.318.354.394.247.066.544.112.892.14.348.018.696.065 1.043.139.348.065.64.234.876.506.245.27.366.644.363 1.12a2.396 2.396 0 0 1-.81 1.816c-.526.482-1.183.796-1.972.945-1.412.266-2.371-.108-2.877-1.122l1.547-1.172c.198.569.645.787 1.342.656.633-.12.95-.38.953-.78.002-.187-.12-.313-.368-.379a3.928 3.928 0 0 0-.878-.156 8.016 8.016 0 0 1-1.043-.153 1.716 1.716 0 0 1-.89-.49c-.236-.262-.352-.623-.349-1.08.005-.69.256-1.278.755-1.764.507-.496 1.132-.814 1.875-.954.56-.106 1.068-.071 1.524.104.457.166.817.461 1.08.887l-1.52 1.125c-.217-.434-.582-.603-1.096-.506-.229.043-.422.13-.578.263a.603.603 0 0 0-.224.46Zm5.942 1.131c.232.832.876 1.15 1.93.95.68-.127 1.194-.457 1.546-.99l1.425.57c-.686 1.127-1.69 1.815-3.01 2.064-1.137.214-2.047.036-2.73-.534-.683-.57-1.02-1.388-1.013-2.452.008-1.055.353-1.996 1.037-2.824a4.317 4.317 0 0 1 2.622-1.556c1.009-.19 1.836.008 2.482.595.656.585.98 1.4.972 2.445a4.524 4.524 0 0 1-.074.755l-5.187.977Zm-.017-1.395 3.508-.66c-.098-.458-.306-.773-.625-.945-.31-.175-.667-.224-1.07-.148-.478.09-.873.29-1.187.6a2.229 2.229 0 0 0-.626 1.153Zm11.579-5.02 1.774-.334-.05 7-1.775.334.006-.825c-.536.781-1.286 1.263-2.25 1.444-.917.173-1.703-.033-2.358-.618-.646-.596-.966-1.412-.958-2.448.007-1.036.34-1.97.995-2.802.666-.843 1.457-1.351 2.375-1.524.963-.181 1.708.019 2.235.6l.006-.826Zm-3.31 5.546c.355.296.808.392 1.358.289a2.28 2.28 0 0 0 1.366-.803c.37-.442.556-.953.56-1.531.005-.58-.175-1.016-.54-1.31-.355-.307-.807-.408-1.358-.304a2.256 2.256 0 0 0-1.366.817c-.36.43-.542.936-.546 1.515-.005.578.17 1.02.526 1.326Zm8.322-5.287c.169-.48.442-.866.82-1.161a2.991 2.991 0 0 1 1.281-.577l-.014 2.016c-.54.036-1.028.24-1.46.61-.425.37-.64.89-.644 1.561l-.024 3.346-1.775.335.05-7 1.775-.334-.009 1.204Zm5.968 4.859c-1.036.195-1.9.004-2.593-.574-.682-.58-1.02-1.392-1.013-2.438.008-1.045.358-1.987 1.051-2.826.703-.84 1.572-1.359 2.608-1.554.67-.126 1.279-.078 1.827.145.547.223.962.583 1.242 1.08L66.54 90.85a1.177 1.177 0 0 0-.628-.567c-.274-.116-.585-.141-.933-.075-.532.1-.974.365-1.325.794a2.25 2.25 0 0 0-.533 1.471c-.004.55.167.975.513 1.273.346.29.785.384 1.317.284.358-.068.675-.207.951-.417a2.07 2.07 0 0 0 .638-.805l1.534.605a4.694 4.694 0 0 1-1.289 1.571 4.22 4.22 0 0 1-1.833.835Zm7.788-8.85c.752-.14 1.37 0 1.852.42.492.42.734 1.084.728 1.989l-.031 4.298-1.775.334.03-4.074c.003-.467-.119-.798-.364-.994-.246-.205-.576-.269-.988-.191-.459.086-.827.3-1.104.641-.277.341-.418.801-.422 1.38l-.027 3.78-1.775.334.07-9.8 1.775-.334-.026 3.584c.436-.735 1.122-1.19 2.057-1.366Z" fill="#fff"/><defs><radialGradient id="a" cx="0" cy="0" r="1" gradientUnits="userSpaceOnUse" gradientTransform="matrix(-4.5 143.3754 -486.44846 -15.26771 222.711 43.505)"><stop offset=".009" stop-color="#0C7A93"/><stop offset=".073" stop-color="#016585"/><stop offset=".483" stop-color="#026787"/><stop offset=".563" stop-color="#1394B2"/><stop offset=".647" stop-color="#01536E"/><stop offset="1" stop-color="#026787"/></radialGradient></defs></svg>