<svg width="213" height="217" fill="none" xmlns="http://www.w3.org/2000/svg"><path d="M15.586 105.585c.036-6.282.054-9.423 1.287-12.134a15.484 15.484 0 0 1 3.97-5.287c2.28-1.966 5.347-2.933 11.48-4.868L199.388 38.88c1.949 1.637 4.088 3.97 5.422 5.492.485.553.727.83.876.988.203.215.132.143.343.35.156.152.653.604 1.648 1.509.774.704 1.662 1.61 2.296 2.57 1.641 2.482 1.619 6.407 1.576 14.255l-.387 58.106c-.036 6.448-.053 9.672-1.333 12.432a15.494 15.494 0 0 1-4.11 5.343c-2.355 1.965-5.512 2.87-11.827 4.679L33.84 176.141c-6.574 1.425-13.434.989-16.574.498-3.141-.492-10.516-2.515-10.516-2.515l8.836-68.539Z" fill="url(#a)"/><path d="M.929 102.716c.045-6.83.068-10.244 1.447-13.128a15.816 15.816 0 0 1 4.405-5.523c2.515-1.999 5.868-2.817 12.574-4.453l163.759-39.955c7.392-1.803 11.088-2.705 13.881-1.802a8.975 8.975 0 0 1 4.906 3.823c1.54 2.473 1.517 6.237 1.47 13.765l-.367 58.729c-.043 7.014-.065 10.521-1.496 13.455a15.826 15.826 0 0 1-4.556 5.575c-2.595 1.994-6.043 2.733-12.937 4.211l-163.75 35.099c-7.21 1.546-10.816 2.319-13.529 1.371a8.966 8.966 0 0 1-4.752-3.842C.497 167.593.522 163.925.57 156.589l.358-53.873Z" fill="#113F83"/><circle opacity=".2" r="7.741" transform="matrix(.98281 -.18462 -.00773 .99997 173.95 67.531)" fill="#fff"/><circle r="2.58" transform="matrix(.98281 -.18462 -.00773 .99997 173.95 67.53)" fill="#fff"/><path d="M22.78 107.993c-1.066.24-1.948.128-2.648-.334-.7-.462-1.065-1.211-1.093-2.247l-.183-6.591 1.871-.42.179 6.437c.014.513.166.887.457 1.122.3.233.754.281 1.364.144.61-.137 1.053-.387 1.327-.749.283-.364.417-.802.403-1.316l-.178-6.437 1.884-.424.183 6.592c.029 1.035-.29 1.938-.956 2.707-.665.769-1.536 1.275-2.61 1.516Zm12.35-2.973-2.144.482-1.946-2.773-1.77 3.608-2.13.479 2.783-5.681-2.905-4.15 2.131-.478 1.789 2.555 1.626-3.323 2.13-.479-2.64 5.382 3.076 4.378Zm1.3 1.115-.778.176 5.114-13.824.779-.175-5.115 13.823Zm10.204-3.504c-1.066.239-1.949.128-2.648-.334-.7-.463-1.065-1.212-1.094-2.247l-.182-6.592 1.871-.42.178 6.437c.015.513.167.887.458 1.123.3.233.754.281 1.364.143.61-.137 1.052-.386 1.326-.748.284-.364.418-.803.404-1.316l-.179-6.438 1.885-.424.183 6.592c.029 1.036-.29 1.938-.956 2.707-.666.77-1.536 1.275-2.61 1.517Zm4.945-11.166 1.885-.424.271 9.796-1.885.424-.271-9.796Zm10.593-2.382c1.312-.295 2.418-.07 3.318.676.91.744 1.383 1.806 1.421 3.187.039 1.381-.37 2.642-1.228 3.783-.848 1.139-1.928 1.855-3.239 2.15l-3.797.854-.272-9.796 3.797-.854Zm.22 7.949a3.322 3.322 0 0 0 2-1.294c.502-.686.742-1.481.716-2.386-.025-.905-.305-1.58-.84-2.023-.534-.452-1.216-.585-2.044-.399l-1.913.43.17 6.102 1.912-.43Zm7.186-2.53c.261.823.915 1.117 1.962.882.674-.152 1.178-.5 1.511-1.044l1.444.52c-.646 1.15-1.625 1.873-2.936 2.167-1.13.254-2.045.108-2.748-.438-.702-.546-1.068-1.351-1.097-2.415-.03-1.054.283-2.007.937-2.858a4.318 4.318 0 0 1 2.566-1.647c1.002-.225 1.836-.056 2.502.508.675.561 1.027 1.365 1.056 2.41.007.233-.01.485-.047.757l-5.15 1.157Zm-.066-1.394 3.483-.783c-.113-.453-.333-.76-.658-.922-.316-.164-.674-.2-1.075-.11-.473.106-.861.32-1.164.641a2.229 2.229 0 0 0-.586 1.174Zm7.674-2.584c.005.186.127.314.367.382.25.056.548.093.897.108.348.006.697.04 1.047.103.35.052.647.21.893.475.255.262.389.63.402 1.106a2.397 2.397 0 0 1-.746 1.844c-.509.5-1.154.837-1.938 1.013-1.402.315-2.373-.025-2.914-1.02l1.505-1.226c.217.561.672.764 1.364.608.628-.14.937-.412.926-.813-.005-.187-.132-.308-.381-.365a3.924 3.924 0 0 0-.883-.126 8.014 8.014 0 0 1-1.048-.116 1.715 1.715 0 0 1-.906-.458c-.246-.255-.375-.61-.387-1.068-.02-.69.212-1.287.692-1.789.49-.514 1.104-.854 1.841-1.02.556-.124 1.065-.107 1.527.052.463.15.832.432 1.11.849l-1.48 1.177c-.231-.427-.602-.583-1.112-.468a1.232 1.232 0 0 0-.57.283.604.604 0 0 0-.206.469Zm5.316-4.04a.91.91 0 0 1-.774-.15.91.91 0 0 1-.336-.713c-.008-.298.09-.583.293-.854.212-.273.464-.442.755-.508.3-.068.559-.013.775.164a.885.885 0 0 1 .35.71c.007.298-.095.584-.307.857a1.3 1.3 0 0 1-.756.494Zm-.657 8.034-.194-6.998 1.762-.396.194 6.998-1.762.396Zm8.276-8.902 1.72-.387.185 6.662c.03 1.082-.297 1.987-.983 2.713a4.752 4.752 0 0 1-2.49 1.419c-.737.166-1.392.168-1.965.005a2.277 2.277 0 0 1-1.319-.985l1.478-1.219c.364.575.97.768 1.817.577.555-.125.988-.372 1.299-.742.31-.37.458-.83.442-1.381l-.02-.756c-.5.826-1.219 1.344-2.156 1.555-.966.217-1.786.054-2.46-.49-.666-.553-1.013-1.33-1.041-2.328-.027-.99.277-1.907.913-2.754s1.433-1.378 2.389-1.593c.938-.211 1.676-.02 2.215.572l-.024-.868Zm-3.16 5.513c.374.272.839.346 1.395.221a2.325 2.325 0 0 0 1.35-.839c.355-.445.524-.948.509-1.508-.016-.55-.21-.962-.584-1.235-.366-.284-.826-.363-1.381-.238-.556.124-1.01.41-1.365.855-.345.435-.51.927-.495 1.478.016.56.206.981.571 1.266Zm10.134-7.278c.746-.168 1.368-.05 1.865.356.506.402.772 1.056.797 1.96l.119 4.297-1.762.396L98 86.788c-.013-.467-.146-.793-.398-.98-.253-.198-.585-.25-.994-.158a1.803 1.803 0 0 0-1.081.68c-.265.35-.39.815-.374 1.394l.105 3.778-1.762.396-.194-6.997 1.762-.396.022.784c.41-.75 1.079-1.229 2.008-1.438Z" fill="#fff"/><defs><radialGradient id="a" cx="0" cy="0" r="1" gradientUnits="userSpaceOnUse" gradientTransform="matrix(-19.50006 148.50016 -167.25416 -21.9627 227.5 42.5)"><stop stop-color="#1354B3"/><stop offset=".134" stop-color="#042B65"/><stop offset=".502" stop-color="#042C66"/><stop offset=".596" stop-color="#11499C"/><stop offset=".675" stop-color="#032A63"/><stop offset="1" stop-color="#083475"/></radialGradient></defs></svg>