<svg width="184" height="211" fill="none" xmlns="http://www.w3.org/2000/svg"><path d="M15.883 93.954c.036-6.282.054-9.422 1.287-12.134a15.483 15.483 0 0 1 3.97-5.287c2.28-1.966 5.347-2.933 11.48-4.868L170.684 33.25c1.419 1.192 2.733 2.753 3.744 4.101.72.96 1.08 1.44 1.211 1.602.323.4-.036-.027.302.36.138.157 1.131 1.219 3.118 3.341.439.47.862.98 1.21 1.505 1.64 2.482 1.619 6.407 1.576 14.255l-.387 68.106c-.036 6.448-.054 9.672-1.333 12.432a15.494 15.494 0 0 1-4.11 5.343c-2.355 1.966-5.512 2.87-11.827 4.679L33.137 175.51c-6.575 1.426-14.538 1.732-17.387.913-2.102-.604-3.169-.913-3.169-.913-3-.801-3.784-1.664-6.347-2.602l9.649-78.954Z" fill="url(#a)"/><path d="M1.24 89.064c.04-6.821.06-10.232 1.435-13.116a15.817 15.817 0 0 1 4.396-5.524c2.511-2.001 5.86-2.825 12.56-4.471L153.389 33.07c7.399-1.82 11.099-2.729 13.895-1.83a8.972 8.972 0 0 1 4.915 3.818c1.545 2.473 1.524 6.24 1.483 13.774l-.396 71.636c-.038 7.038-.058 10.557-1.494 13.499a15.828 15.828 0 0 1-4.573 5.585c-2.605 1.994-6.065 2.724-12.985 4.185L20.481 171.964c-7.185 1.517-10.777 2.275-13.48 1.324a8.96 8.96 0 0 1-4.734-3.84c-1.482-2.442-1.46-6.096-1.418-13.403l.39-66.98Z" fill="#131E82"/><circle opacity=".2" r="7.741" transform="matrix(.98281 -.18462 -.00773 .99997 146.247 58.9)" fill="#fff"/><circle r="2.58" transform="matrix(.98281 -.18462 -.00773 .99997 146.247 58.9)" fill="#fff"/><path d="M25.272 85.12c.852.306 1.291.959 1.319 1.957.023.83-.245 1.576-.804 2.237a3.756 3.756 0 0 1-2.095 1.273l-4.057.912-.271-9.796 3.77-.848c.82-.184 1.514-.077 2.084.32.579.387.88.98.901 1.783.023.812-.26 1.533-.847 2.162Zm-2.088-2.46-1.885.424.06 2.156 1.884-.424c.292-.066.53-.222.716-.47.194-.251.287-.53.279-.838-.009-.308-.111-.543-.308-.705-.197-.162-.446-.21-.746-.142Zm.458 6.122c.319-.072.58-.239.783-.5.203-.271.3-.575.291-.91-.009-.327-.121-.574-.337-.742-.215-.176-.482-.229-.801-.157l-2.172.488.064 2.31 2.172-.49ZM32.79 81.5l1.762-.396.194 6.997-1.762.396-.023-.826c-.51.8-1.242 1.308-2.198 1.523-.91.204-1.704.026-2.379-.536-.666-.573-1.014-1.377-1.043-2.413-.028-1.035.27-1.98.898-2.835.635-.866 1.409-1.4 2.32-1.606.955-.215 1.707-.04 2.254.522l-.023-.826Zm-3.114 5.657c.365.284.82.364 1.367.242a2.28 2.28 0 0 0 1.337-.85c.354-.455.523-.972.507-1.55-.016-.579-.211-1.01-.586-1.291-.365-.293-.821-.379-1.367-.256-.547.123-.992.41-1.337.864-.345.444-.51.955-.494 1.533.016.579.207 1.015.573 1.308Zm9.788.08c-1.03.232-1.9.07-2.612-.483-.702-.555-1.068-1.355-1.097-2.4-.029-1.045.288-1.999.951-2.862.673-.864 1.524-1.412 2.553-1.643.664-.15 1.274-.123 1.83.08.555.205.982.55 1.28 1.037l-1.492 1.25a1.178 1.178 0 0 0-.647-.544c-.278-.106-.59-.12-.936-.043-.528.119-.96.399-1.296.84a2.25 2.25 0 0 0-.48 1.489c.014.55.2.968.556 1.254.356.277.798.356 1.326.237.355-.08.667-.23.936-.45a2.07 2.07 0 0 0 .61-.826l1.554.551a4.693 4.693 0 0 1-1.233 1.616 4.221 4.221 0 0 1-1.803.898Zm10.173-2.484-2.049.461-2.574-2.618.088 3.177-1.762.396-.271-9.796 1.762-.396.163 5.877 2.264-3.607 2.103-.473-2.65 4.074 2.926 2.905Zm1.662-3.147c.261.823.915 1.118 1.962.882.674-.151 1.178-.5 1.51-1.043l1.445.52c-.647 1.15-1.625 1.872-2.937 2.167-1.129.254-2.045.107-2.747-.439s-1.068-1.35-1.098-2.415c-.029-1.054.284-2.007.938-2.858a4.317 4.317 0 0 1 2.566-1.647c1.002-.225 1.836-.056 2.502.508.675.562 1.027 1.365 1.056 2.41.007.233-.01.486-.048.757L51.3 81.607Zm-.066-1.394 3.483-.783c-.113-.453-.333-.76-.658-.922-.316-.164-.674-.2-1.075-.11-.473.106-.862.32-1.164.642a2.228 2.228 0 0 0-.586 1.173Zm10.052-5.315c.746-.168 1.368-.05 1.865.355.506.403.771 1.056.796 1.961l.12 4.297-1.763.396-.112-4.072c-.013-.467-.146-.794-.399-.981-.253-.197-.584-.25-.994-.157a1.803 1.803 0 0 0-1.08.68c-.266.35-.39.815-.374 1.393l.105 3.779-1.762.396-.194-6.997 1.762-.397.021.784c.41-.75 1.08-1.228 2.008-1.437Zm9.054-4.655 1.762-.396.271 9.796-1.762.397-.023-.826c-.5.797-1.228 1.304-2.184 1.519-.92.207-1.717.03-2.393-.532-.666-.574-1.014-1.378-1.042-2.413-.03-1.036.27-1.981.897-2.835.636-.866 1.413-1.403 2.333-1.61.956-.214 1.703-.04 2.241.525l-.1-3.625ZM67.302 78.7c.374.282.835.362 1.38.239a2.28 2.28 0 0 0 1.338-.85c.345-.453.51-.969.493-1.547-.016-.579-.207-1.01-.572-1.294-.365-.293-.821-.379-1.368-.256a2.31 2.31 0 0 0-1.35.867c-.345.444-.51.955-.493 1.533.016.579.206 1.015.572 1.308Z" fill="#fff"/><defs><radialGradient id="a" cx="0" cy="0" r="1" gradientUnits="userSpaceOnUse" gradientTransform="rotate(101.427 89.326 95.224) scale(191.802 216.025)"><stop stop-color="#1B31B2"/><stop offset=".156" stop-color="#0B156A"/><stop offset=".502" stop-color="#0E197A"/><stop offset=".596" stop-color="#283FB7"/><stop offset=".675" stop-color="#091478"/><stop offset="1" stop-color="#081372"/></radialGradient></defs></svg>