<svg width="215" height="215" fill="none" xmlns="http://www.w3.org/2000/svg"><path d="M15.781 95.609c.037-6.281.055-9.422 1.287-12.134a15.485 15.485 0 0 1 3.97-5.287c2.28-1.965 5.347-2.933 11.48-4.867l161.748-34.407c5.312.501 6.062.626 9.625 1.126 3.562.5 6.067 2.943 7.276 4.773 1.641 2.483 1.619 6.407 1.576 14.255l-.387 67.106c-.035 6.448-.053 9.672-1.333 12.432a15.49 15.49 0 0 1-4.109 5.343c-2.355 1.966-8.086 3.403-11.648 4.09l-163 25.781c-6.375.843-10.985.843-14.805.843-3.82 0-9.008-.843-9.008-.843l7.328-78.211Z" fill="url(#a)"/><path d="M1.126 95.677c.044-7.139.066-10.708 1.533-13.675a15.816 15.816 0 0 1 4.656-5.607c2.649-1.988 6.158-2.671 13.177-4.037L184.263 40.49c7.08-1.378 10.621-2.067 13.279-1.093a8.963 8.963 0 0 1 4.65 3.847c1.451 2.426 1.431 6.027 1.389 13.228l-.385 66.663c-.043 7.364-.064 11.046-1.592 14.07a15.824 15.824 0 0 1-4.835 5.661c-2.743 1.976-6.361 2.555-13.597 3.713L19.409 172.783c-6.864 1.098-10.296 1.648-12.86.628a8.957 8.957 0 0 1-4.474-3.862c-1.39-2.394-1.369-5.887-1.326-12.873l.377-60.999Z" fill="#076086"/><circle opacity=".2" r="7.741" transform="matrix(.98281 -.18462 -.00773 .99997 176.146 67.557)" fill="#fff"/><circle r="2.58" transform="matrix(.98281 -.18462 -.00773 .99997 176.145 67.556)" fill="#fff"/><path d="m21.15 98.446-2.464-9.336 2-.341 1.671 6.948 2.194-7.607 1.629-.277 1.85 6.918 2.028-7.579 2-.341-2.946 10.258-2.166.37-1.663-6.157-1.967 6.775-2.167.369Zm12.358-9.91a.91.91 0 0 1-.765-.19.91.91 0 0 1-.298-.73c.007-.3.12-.579.337-.838.226-.262.486-.418.78-.468.304-.052.56.016.765.204.215.187.32.429.312.728-.007.298-.124.578-.35.84a1.3 1.3 0 0 1-.781.453Zm-1.077 7.987.173-6.998 1.78-.303-.172 6.998-1.78.303Zm5.195-6.655c.177-.476.457-.858.84-1.146.391-.29.822-.475 1.291-.555l-.05 2.016a2.455 2.455 0 0 0-1.47.585c-.431.361-.654.878-.671 1.55l-.083 3.344-1.78.304.173-6.998 1.78-.303-.03 1.203Zm4.175 2.313c.217.837.855 1.165 1.913.984.681-.116 1.202-.437 1.563-.963l1.415.595c-.706 1.115-1.72 1.785-3.046 2.01-1.14.195-2.047.001-2.72-.581s-.996-1.405-.97-2.469c.026-1.054.388-1.99 1.086-2.805a4.318 4.318 0 0 1 2.648-1.51c1.013-.173 1.836.04 2.472.637.645.597.955 1.417.929 2.462a4.55 4.55 0 0 1-.087.754l-5.203.886Zm.007-1.394 3.519-.6c-.09-.459-.292-.777-.609-.956-.307-.18-.663-.235-1.068-.166a2.224 2.224 0 0 0-1.196.58 2.228 2.228 0 0 0-.646 1.142Zm10.016-5.79c-.974.09-1.471.57-1.493 1.438l-.002.07 1.463-.25-.042 1.736-1.463.25-.13 5.262-1.78.303.13-5.262-.994.17.043-1.736.993-.17.002-.07c.024-.989.314-1.786.87-2.391.555-.606 1.37-.968 2.445-1.086l-.042 1.735Zm2.397 2.044c.177-.476.456-.859.84-1.147.391-.29.822-.474 1.29-.554l-.049 2.015a2.456 2.456 0 0 0-1.47.585c-.431.362-.655.878-.671 1.55l-.083 3.345-1.78.303.172-6.998 1.78-.303-.029 1.204Zm8.019-2.565 1.78-.304-.172 6.998-1.78.304.02-.826c-.55.772-1.309 1.24-2.275 1.405-.92.157-1.703-.063-2.347-.66-.636-.606-.941-1.428-.915-2.464.025-1.035.373-1.963 1.044-2.784.68-.831 1.48-1.325 2.4-1.482.966-.164 1.708.048 2.225.638l.02-.825Zm-3.406 5.486c.35.303.8.407 1.353.313a2.28 2.28 0 0 0 1.38-.779c.377-.436.572-.943.587-1.521.014-.579-.158-1.019-.517-1.32-.35-.312-.8-.421-1.353-.327a2.256 2.256 0 0 0-1.38.793 2.319 2.319 0 0 0-.573 1.505c-.014.578.153 1.024.503 1.336Zm14.3-7.538c.79-.134 1.415.02 1.871.462.466.441.688 1.1.666 1.977l-.106 4.31-1.78.304.103-4.185c.01-.42-.083-.729-.28-.928-.197-.198-.479-.266-.847-.204a1.477 1.477 0 0 0-.962.568c-.228.309-.348.72-.36 1.233l-.097 3.932-1.78.304.102-4.185c.01-.42-.082-.73-.28-.928-.196-.199-.478-.267-.846-.204a1.508 1.508 0 0 0-.962.568c-.237.31-.362.721-.374 1.235l-.097 3.932-1.78.304.172-6.998 1.78-.304-.018.742c.43-.695 1.076-1.117 1.941-1.264.847-.145 1.464.085 1.852.688.477-.75 1.17-1.203 2.082-1.359Zm5.377 3.502c.218.836.856 1.164 1.914.984.68-.116 1.201-.437 1.563-.963l1.414.595c-.705 1.114-1.72 1.785-3.045 2.01-1.141.195-2.048 0-2.72-.581-.674-.583-.997-1.406-.97-2.47.025-1.053.387-1.989 1.085-2.804a4.318 4.318 0 0 1 2.649-1.51c1.012-.173 1.836.04 2.472.637.644.596.954 1.417.928 2.462a4.526 4.526 0 0 1-.087.754l-5.203.886Zm.007-1.395 3.52-.6c-.09-.458-.293-.776-.61-.955-.306-.18-.662-.235-1.067-.166a2.225 2.225 0 0 0-1.197.58 2.229 2.229 0 0 0-.646 1.141Zm7.798-2.179c-.004.187.111.32.348.401.245.07.542.121.89.155.347.025.694.077 1.04.157.346.071.635.245.866.522.241.274.356.65.344 1.126a2.397 2.397 0 0 1-.842 1.802c-.534.472-1.196.775-1.987.91-1.417.241-2.37-.15-2.858-1.172l1.568-1.145c.187.572.63.798 1.33.68.635-.109.957-.364.967-.765.005-.186-.116-.315-.362-.384a3.932 3.932 0 0 0-.875-.172 8.035 8.035 0 0 1-1.04-.17 1.715 1.715 0 0 1-.881-.506c-.232-.267-.342-.63-.33-1.086.016-.69.278-1.274.785-1.75.516-.488 1.146-.795 1.892-.922.56-.096 1.068-.052 1.522.13.454.174.808.476 1.063.906l-1.539 1.099c-.209-.439-.57-.614-1.086-.526-.23.04-.425.124-.584.253a.604.604 0 0 0-.23.457Z" fill="#fff"/><defs><radialGradient id="a" cx="0" cy="0" r="1" gradientUnits="userSpaceOnUse" gradientTransform="matrix(-4.5 143.3754 -486.44846 -15.26771 222.766 37.914)"><stop offset=".009" stop-color="#076086"/><stop offset=".073" stop-color="#054E77"/><stop offset=".571" stop-color="#054E77"/><stop offset=".693" stop-color="#0D749F"/><stop offset=".8" stop-color="#013E60"/><stop offset="1" stop-color="#054E77"/></radialGradient></defs></svg>