<svg width="184" height="223" fill="none" xmlns="http://www.w3.org/2000/svg"><path d="M15.883 103.68c.036-6.281.054-9.422 1.287-12.134a15.484 15.484 0 0 1 3.97-5.287c2.28-1.965 5.347-2.932 11.48-4.867L170.234 33.76c1.625 1.365 3.234 3.27 4.403 4.786.653.846.98 1.27 1.134 1.454.284.339.057.08.356.405.162.177.969.989 2.581 2.612.561.564 1.122 1.203 1.561 1.867 1.64 2.483 1.619 6.407 1.576 14.256l-.387 70.106c-.036 6.448-.054 9.672-1.333 12.431a15.497 15.497 0 0 1-4.11 5.344c-2.355 1.965-5.512 2.87-11.827 4.678L33.137 185.236c-7.496 2.147-11.244 3.221-14.093 2.402-2.102-.604-3.497-1.191-3.497-1.191-2.813-1.211-6.75-3.875-9.313-4.812l9.649-77.955Z" fill="url(#a)"/><path d="M1.246 97.861c.038-6.51.057-9.766 1.343-12.562a15.806 15.806 0 0 1 4.137-5.429c2.372-2.005 5.557-2.955 11.926-4.853l133.746-39.86c7.718-2.3 11.577-3.45 14.515-2.633 2.167.602 3.976 1.919 5.187 3.776 1.641 2.52 1.62 6.464 1.576 14.352l-.394 71.507c-.037 6.718-.056 10.077-1.401 12.932a15.82 15.82 0 0 1-4.309 5.495c-2.465 2.004-5.761 2.872-12.352 4.607L21.478 180.398c-7.508 1.977-11.262 2.965-14.107 2.092a8.975 8.975 0 0 1-5.005-3.807c-1.577-2.49-1.555-6.316-1.51-13.97l.39-66.852Z" fill="#43098C"/><circle opacity=".2" r="7.741" transform="matrix(.98281 -.18462 -.00773 .99997 146.251 63.627)" fill="#fff"/><circle r="2.58" transform="matrix(.98281 -.18462 -.00773 .99997 146.25 63.626)" fill="#fff"/><path d="m25.252 92.926-3.792.993.145 2.32 3.684-.965.116 1.844-3.684.965.236 3.772-1.869.49-.613-9.781 5.661-1.482.116 1.844Zm3.027 1.395c.135-.49.38-.895.736-1.215a2.993 2.993 0 0 1 1.239-.665l.126 2.012a2.456 2.456 0 0 0-1.415.71c-.397.398-.574.932-.532 1.603l.209 3.339-1.747.458-.438-6.987 1.747-.457.075 1.202Zm8.772 2.703c-.65.89-1.477 1.466-2.48 1.728-1.002.262-1.873.13-2.612-.395-.732-.538-1.13-1.324-1.194-2.358-.065-1.034.223-1.994.865-2.882.65-.9 1.476-1.48 2.479-1.743 1.002-.262 1.873-.125 2.613.41.74.526 1.142 1.306 1.207 2.34.065 1.034-.228 2-.878 2.9Zm-3.938-.234c.375.272.824.339 1.348.201.524-.137.95-.433 1.28-.888a2.28 2.28 0 0 0 .441-1.522c-.035-.559-.24-.974-.615-1.245-.375-.271-.824-.338-1.348-.2-.523.136-.95.433-1.28.888-.32.453-.462.959-.427 1.518.035.559.235.975.601 1.248Zm9.444-7.627c.74-.194 1.365-.097 1.876.29.52.385.808 1.029.865 1.932l.269 4.29-1.748.457-.254-4.066c-.03-.466-.174-.788-.433-.966-.26-.188-.592-.228-.998-.122a1.803 1.803 0 0 0-1.057.717c-.253.36-.36.828-.325 1.406l.237 3.772-1.747.458-.438-6.987 1.747-.457.049.782c.383-.763 1.036-1.265 1.957-1.506Zm7.91-.111-1.53.4.182 2.907c.015.242.085.404.21.485.124.08.3.101.526.06.227-.049.506-.127.839-.233l.102 1.635c-1.192.454-2.048.56-2.568.317-.51-.245-.796-.847-.856-1.807l-.182-2.906-1.179.309-.108-1.733 1.178-.309-.089-1.41 1.713-1.003.123 1.956 1.53-.4.11 1.732Zm2.518 1.883c.29.814.954 1.085 1.992.814.668-.175 1.16-.54 1.473-1.096l1.461.47c-.605 1.171-1.558 1.927-2.859 2.267-1.12.293-2.04.18-2.76-.342-.721-.521-1.115-1.313-1.182-2.375-.066-1.052.213-2.016.838-2.89a4.318 4.318 0 0 1 2.506-1.735c.993-.26 1.833-.12 2.518.42.695.538 1.075 1.329 1.14 2.372a4.54 4.54 0 0 1-.021.758l-5.106 1.337Zm-.115-1.39 3.454-.904c-.13-.45-.36-.749-.69-.899-.321-.153-.68-.177-1.078-.073-.47.123-.85.35-1.141.682-.292.323-.474.72-.545 1.194Zm9.86-5.663c.74-.194 1.366-.097 1.877.29.52.384.808 1.029.864 1.932l.27 4.29-1.748.457-.255-4.066c-.029-.466-.173-.788-.432-.966-.26-.188-.592-.228-.999-.122a1.803 1.803 0 0 0-1.056.717c-.253.36-.361.828-.325 1.406l.237 3.772-1.748.457-.438-6.986 1.748-.457.049.782c.383-.763 1.035-1.265 1.956-1.506Zm8.886-4.968 1.748-.457.613 9.78-1.747.458-.052-.825c-.472.815-1.182 1.347-2.13 1.595-.912.239-1.715.089-2.41-.449-.686-.55-1.061-1.34-1.126-2.375-.065-1.034.201-1.989.798-2.864.605-.888 1.363-1.451 2.275-1.69.948-.248 1.701-.1 2.258.446l-.227-3.619Zm-2.74 8.557c.385.269.847.332 1.39.19a2.28 2.28 0 0 0 1.306-.896c.329-.465.475-.986.439-1.563-.037-.578-.242-1.002-.617-1.273-.376-.28-.834-.35-1.376-.208a2.31 2.31 0 0 0-1.32.913c-.329.456-.475.972-.439 1.55.036.577.242 1.006.618 1.287Z" fill="#fff"/><defs><radialGradient id="a" cx="0" cy="0" r="1" gradientUnits="userSpaceOnUse" gradientTransform="rotate(101.427 85.347 100.087) scale(191.802 216.025)"><stop stop-color="#43098C"/><stop offset=".13" stop-color="#360474"/><stop offset=".43" stop-color="#370577"/><stop offset=".521" stop-color="#5009AA"/><stop offset=".592" stop-color="#370577"/><stop offset="1" stop-color="#370577"/></radialGradient></defs></svg>