<svg width="109" height="108" fill="none" xmlns="http://www.w3.org/2000/svg"><g opacity=".2" fill-rule="evenodd" clip-rule="evenodd" fill="#26A0F8"><path d="M37.902 38.134c1.988 1.605 2.263 4.674.613 6.856l-8.661 11.45 9.613 9.422c1.832 1.796 1.839 4.895.016 6.922-1.822 2.028-4.784 2.217-6.616.422L21.956 62.51c-2.696-2.642-2.9-7.125-.472-10.336l9.83-12.997c1.65-2.181 4.6-2.649 6.588-1.044ZM68.984 34.684c-1.822 2.027-1.815 5.126.016 6.921l9.613 9.423-8.66 11.45c-1.65 2.181-1.376 5.25.612 6.856 1.989 1.605 4.938 1.137 6.588-1.044l9.83-12.997c2.43-3.211 2.224-7.694-.471-10.336L75.6 34.262c-1.831-1.795-4.793-1.606-6.616.422ZM61.384 28.722c2.472.636 3.865 3.285 3.113 5.918l-11.57 40.49c-.753 2.632-3.367 4.25-5.839 3.614-2.471-.636-3.865-3.285-3.113-5.918l11.571-40.49c.752-2.632 3.366-4.25 5.838-3.614Z"/></g></svg>