<svg width="401" height="351" fill="none" xmlns="http://www.w3.org/2000/svg"><path fill-rule="evenodd" clip-rule="evenodd" d="M115.701 141.069a870.201 870.201 0 0 0 41.501-41.179c-15.925 7.12-32.407 23.933-41.501 41.179Zm-9.259 27.283 2.443-8.932c17.625-15.68 34.982-32.362 51.293-49.116a1002.043 1002.043 0 0 0 19.259-20.335l11.566-5.16a995.753 995.753 0 0 1-27.182 29.041c-18.154 18.646-37.635 37.243-57.379 54.502Zm-4.269 15.612c23.317-19.881 46.928-42.013 68.942-64.25 14.979-15.13 29.201-30.291 42.068-44.801l11.1-4.953c-14.776 17.065-31.633 35.227-49.555 53.331-23.842 24.082-49.614 48.108-74.923 69.333l2.368-8.66Zm-6.552 23.962c28.442-23.397 58.512-51.031 86.427-78.801 24.011-23.885 46.386-47.828 64.711-69.192l10.702-4.776a788.418 788.418 0 0 1-4.761 5.647c-18.805 22.095-42.063 47.052-67.067 71.925-29.762 29.606-62.062 59.158-92.32 83.641l2.308-8.444Zm-6.444 23.566c32.808-26.128 69.656-59.464 103.805-92.957 26.103-25.602 50.583-51.25 70.419-73.768 6.113-6.94 11.774-13.57 16.899-19.8l10.219-4.56c-6.724 8.487-14.581 17.818-23.304 27.72-19.932 22.628-44.5 48.366-70.674 74.038-36.052 35.359-75.241 70.68-109.622 97.586l2.258-8.259Zm-6.366 23.282c36.133-27.864 80.232-67.261 121.104-106.827 27.284-26.411 53.084-52.853 74.057-75.918 13.716-15.084 25.318-28.671 33.916-39.835 2.354-.364 4.513-.387 6.452-.089-8.961 11.955-21.588 26.827-36.607 43.344-21.06 23.16-46.937 49.68-74.282 76.151-42.884 41.513-89.492 83.016-126.85 111.257l2.21-8.083Zm-6.302 23.049c37.955-28.208 90.02-74.251 138.34-120.46 46.915-44.866 90.04-89.641 113.184-118.187.82 1.76 1.34 3.818 1.531 6.15-23.953 28.998-65.97 72.455-111.202 115.711-50.525 48.318-105.364 96.673-144.01 124.675l2.157-7.889Zm-5.614 22.331c37.432-26.473 98.276-79.852 154.884-133.376 38.115-36.038 74.159-72 99.755-99.734l-2.887 10.558c-25.179 26.815-58.489 59.883-93.375 92.87-58.115 54.948-120.956 110.001-158.45 135.936-.206-1.898-.187-3.988.073-6.254Zm3.96 15.467c35.745-25.288 100.81-82.318 161.855-139.429 28.867-27.007 56.761-53.963 80.177-77.527l-2.711 9.914c-22.136 22.098-47.699 46.725-73.993 71.325-60.008 56.14-124.144 112.437-160.564 138.564-1.857-.604-3.454-1.562-4.764-2.847Zm25.246-.565c36.891-29.303 93.484-79.374 147.54-129.448 21.312-19.741 42.195-39.452 61.294-57.862l-2.616 9.569c-17.444 16.735-36.179 34.381-55.223 52.022-47.254 43.773-96.575 87.665-133.027 117.702l-17.968 8.017Zm48.14-21.479c32.718-28.218 72.027-63.398 110.332-98.552a5836.31 5836.31 0 0 0 42.816-39.682l-2.556 9.35a5931.487 5931.487 0 0 1-36.823 34.077c-33.475 30.722-67.769 61.512-97.788 87.677l-15.981 7.13Zm43.715-19.504c24.642-21.812 51.274-45.735 77.544-69.634a7982.44 7982.44 0 0 0 24.612-22.482l-2.515 9.2a8312.557 8312.557 0 0 1-18.676 17.042A7995.607 7995.607 0 0 1 207.36 267.2l-15.404 6.873Zm59.735-27.535c-2.855 1.851-5.737 3.443-8.601 4.721l-8.581 3.828a12237.872 12237.872 0 0 0 50.11-45.007c-3.222 6.107-7.371 12.16-12.093 17.747a12549.836 12549.836 0 0 1-20.835 18.711Z" fill="#fff" opacity=".07"/></svg>