<svg width="83" height="87" fill="none" xmlns="http://www.w3.org/2000/svg"><path d="m40.82.877 2.917 18.589c1.272 8.107 1.909 12.16 4.607 14.106 2.698 1.946 6.748 1.273 14.85-.073l18.859-3.133-18.813 8.927c-8.082 3.835-12.122 5.752-14.776 9.411-2.653 3.66-3.221 8.098-4.358 16.976l-2.607 20.358-2.918-18.589c-1.272-8.107-1.908-12.16-4.606-14.106-2.698-1.946-6.749-1.273-14.85.073L.265 56.549l18.814-8.927c8.08-3.835 12.122-5.752 14.775-9.411 2.653-3.66 3.222-8.098 4.358-16.976L40.82.877Z" fill="#C4C4C4"/><path d="m40.82.877 2.917 18.589c1.272 8.107 1.909 12.16 4.607 14.106 2.698 1.946 6.748 1.273 14.85-.073l18.859-3.133-18.813 8.927c-8.082 3.835-12.122 5.752-14.776 9.411-2.653 3.66-3.221 8.098-4.358 16.976l-2.607 20.358-2.918-18.589c-1.272-8.107-1.908-12.16-4.606-14.106-2.698-1.946-6.749-1.273-14.85.073L.265 56.549l18.814-8.927c8.08-3.835 12.122-5.752 14.775-9.411 2.653-3.66 3.222-8.098 4.358-16.976L40.82.877Z" fill="url(#a)"/><defs><linearGradient id="a" x1="79.018" y1=".691" x2="69.153" y2="92.478" gradientUnits="userSpaceOnUse"><stop stop-color="#98E8FC"/><stop offset=".427" stop-color="#1FA9FF"/><stop offset="1" stop-color="#8980F6"/></linearGradient></defs></svg>