<svg width="97" height="104" fill="none" xmlns="http://www.w3.org/2000/svg"><path opacity=".4" clip-rule="evenodd" d="M9.78 85.053c9.342-.183 16.786-7.872 16.666-17.215l-.011-.849c-.247-19.237 15.079-35.067 34.314-35.442l.762-.015c9.364-.183 16.817-7.907 16.665-17.272l-.065-4.037a9 9 0 0 1 17.998-.291l.065 4.037c.312 19.282-15.032 35.183-34.312 35.56l-.762.014c-9.343.183-16.787 7.872-16.667 17.215l.011.849c.247 19.237-15.079 35.067-34.314 35.442l-.424.008a9 9 0 1 1-.351-17.996l.424-.008Z" stroke="#26A0F8" stroke-linecap="round"/></svg>