<svg width="89" height="96" fill="none" xmlns="http://www.w3.org/2000/svg"><g opacity=".2" fill-rule="evenodd" clip-rule="evenodd" fill="#26A0F8"><path d="M42.106 18.287c-17.74 4.226-31.078 20.883-29.792 37.205C13.599 71.814 29.02 81.62 46.76 77.394 64.5 73.168 77.838 56.51 76.553 40.189c-1.285-16.322-16.708-26.128-34.447-21.902Zm-38.97 39.39c-1.652-20.984 15.498-42.4 38.305-47.834 22.808-5.433 42.636 7.175 44.289 28.16 1.652 20.985-15.497 42.402-38.305 47.835C24.619 91.27 4.79 78.663 3.138 57.678Z"/><path d="M42.573 24.197c2.534-.604 4.737.797 4.92 3.129l1.392 17.672 10.37 6.593c1.921 1.222 2.132 3.895.47 5.97-1.662 2.076-4.568 2.768-6.49 1.546l-10.657-6.776c-1.66-1.056-2.683-2.782-2.842-4.797l-1.42-18.022c-.183-2.332 1.723-4.711 4.257-5.315Z"/></g></svg>