<svg id="Icons" height="512" viewBox="0 0 60 60" width="512" xmlns="http://www.w3.org/2000/svg"><path d="m50 25h-40a5 5 0 0 1 -5-5v-14a5 5 0 0 1 5-5h31.343a4 4 0 0 1 2.829 1.172l9.656 9.656a4 4 0 0 1 1.172 2.829v5.343a5 5 0 0 1 -5 5z" fill="#9fc9d3"/><rect fill="#3b97d3" height="6" rx="1" width="6" x="10" y="6"/><path d="m26 8h-6a1 1 0 0 1 0-2h6a1 1 0 0 1 0 2z" fill="#3f5c6c"/><path d="m39 8h-9a1 1 0 0 1 0-2h9a1 1 0 0 1 0 2z" fill="#3f5c6c"/><path d="m33 12h-13a1 1 0 0 1 0-2h13a1 1 0 0 1 0 2z" fill="#3f5c6c"/><path d="m16 59h-12a2 2 0 0 1 -2-2v-18a2 2 0 0 1 2-2h6.757a3 3 0 0 1 2.122.879l4.242 4.242a3 3 0 0 1 .879 2.122v12.757a2 2 0 0 1 -2 2z" fill="#f0c419"/><path d="m14 49h-8a1 1 0 0 1 0-2h8a1 1 0 0 1 0 2z" fill="#3f5c6c"/><path d="m8 44h-2a1 1 0 0 1 0-2h2a1 1 0 0 1 0 2z" fill="#3f5c6c"/><path d="m14 54h-8a1 1 0 0 1 0-2h8a1 1 0 0 1 0 2z" fill="#3f5c6c"/><path d="m36 59h-12a2 2 0 0 1 -2-2v-18a2 2 0 0 1 2-2h6.757a3 3 0 0 1 2.122.879l4.242 4.242a3 3 0 0 1 .879 2.122v12.757a2 2 0 0 1 -2 2z" fill="#f0c419"/><path d="m34 49h-8a1 1 0 0 1 0-2h8a1 1 0 0 1 0 2z" fill="#3f5c6c"/><path d="m28 44h-2a1 1 0 0 1 0-2h2a1 1 0 0 1 0 2z" fill="#3f5c6c"/><path d="m34 54h-8a1 1 0 0 1 0-2h8a1 1 0 0 1 0 2z" fill="#3f5c6c"/><path d="m56 59h-12a2 2 0 0 1 -2-2v-18a2 2 0 0 1 2-2h6.757a3 3 0 0 1 2.122.879l4.242 4.242a3 3 0 0 1 .879 2.122v12.757a2 2 0 0 1 -2 2z" fill="#f0c419"/><g fill="#3f5c6c"><path d="m54 49h-8a1 1 0 0 1 0-2h8a1 1 0 0 1 0 2z"/><path d="m48 44h-2a1 1 0 0 1 0-2h2a1 1 0 0 1 0 2z"/><path d="m54 54h-8a1 1 0 0 1 0-2h8a1 1 0 0 1 0 2z"/><path d="m48 30h-17v-5h-2v5h-17a3 3 0 0 0 -3 3v4h2v-4a1 1 0 0 1 1-1h17v5h2v-5h17a1 1 0 0 1 1 1v4h2v-4a3 3 0 0 0 -3-3z"/></g><path d="m54.64 13h-8.64a3 3 0 0 1 -3-3v-8.64a4.089 4.089 0 0 1 1.17.81l9.66 9.66a4.089 4.089 0 0 1 .81 1.17z" fill="#84b5cb"/><path d="m17.73 43h-4.73a1 1 0 0 1 -1-1v-4.72a2.869 2.869 0 0 1 .88.6l4.24 4.24a3.091 3.091 0 0 1 .61.88z" fill="#f3d55b"/><path d="m37.73 43h-4.73a1 1 0 0 1 -1-1v-4.72a2.869 2.869 0 0 1 .88.6l4.24 4.24a3.091 3.091 0 0 1 .61.88z" fill="#f3d55b"/><path d="m57.73 43h-4.73a1 1 0 0 1 -1-1v-4.72a2.869 2.869 0 0 1 .88.6l4.24 4.24a3.091 3.091 0 0 1 .61.88z" fill="#f3d55b"/></svg>