<svg clip-rule="evenodd" fill-rule="evenodd" height="512" image-rendering="optimizeQuality" shape-rendering="geometricPrecision" text-rendering="geometricPrecision" viewBox="0 0 1707 1707" width="512" xmlns="http://www.w3.org/2000/svg"><g id="Layer_x0020_1"><g id="_500627968"><g><path d="m227 1042v-814c0-126 103-228 228-228h659 54c-4 0-8 1-11 2-12 5-20 17-20 29v208c0 57 47 103 103 103h208 1c15 0 28-11 31-26v50 676z" fill="#bce2f6"/><path d="m1449 342h-1-208c-56 0-103-46-103-103v-208-31h31c8 0 17 3 23 9l277 277c7 6 12 15 12 25v5 26z" fill="#98b7c7"/></g><path d="m1501 1707h-1296c-79 0-143-65-143-143v-379c0-79 64-143 143-143h1296c79 0 143 64 143 143v379c0 78-64 143-143 143z" fill="#ffe600"/><path d="m1253 924h-799c-13 0-23-10-23-23 0-12 10-23 23-23h799c12 0 22 11 22 23 0 13-10 23-22 23zm0-175h-799c-13 0-23-10-23-22 0-13 10-23 23-23h799c12 0 22 10 22 23 0 12-10 22-22 22zm0-174h-799c-13 0-23-10-23-23 0-12 10-23 23-23h799c12 0 22 11 22 23 0 13-10 23-22 23zm-206-289-92-92c-9-9-9-23 0-32s23-9 32 0l108 107c4 5 6 11 6 17s-2 11-6 16l-108 107c-4 4-10 7-16 7s-12-3-16-7c-9-9-9-23 0-32zm-390 0 91 91c9 9 9 23 0 32-4 4-10 7-16 7s-12-3-16-7l-107-107c-5-5-7-10-7-16s2-12 7-17l107-107c9-9 23-9 32 0s9 23 0 32zm166 134c-5 0-2 0-6-1-12-3-19-16-16-28l58-216c3-12 16-20 28-16 12 3 19 15 16 27l-58 217c-3 10-12 17-22 17z" fill="#333"/></g><path d="m674 1591c-30 0-60-9-84-29-27-22-40-53-40-87v-18c0-13 11-23 23-23 13 0 23 10 23 23v18c0 21 7 39 23 52 29 24 82 24 111 0 17-13 24-32 24-53v-283c0-12 10-22 23-22 12 0 22 10 22 22v283c0 71-56 117-125 117zm336 0c-57 0-123-30-141-89-3-9-5-18-5-28 0-13 10-23 23-23s23 10 23 23c0 3 0 6 1 9 8 42 61 62 99 62s92-20 100-62c1-3 1-6 1-9 0-12-2-25-10-35-17-24-67-32-95-37-70-13-142-29-142-116 0-10 2-20 5-29 18-58 84-88 141-88 58 0 123 30 142 88 3 9 4 19 4 29 0 12-10 22-22 22-13 0-23-10-23-22 0-3 0-7-1-10-8-42-62-62-100-62s-91 20-99 62c-1 3-1 7-1 10 0 12 2 24 9 34 18 25 68 32 95 37 71 13 142 29 142 117 0 10-1 19-4 28-19 59-84 89-142 89z" fill="#333"/></g></svg>