<svg width="51" height="49" fill="none" xmlns="http://www.w3.org/2000/svg"><path d="M41.22 49H8.87C3.965 49 0 45.022 0 40.1V8.9C0 3.977 3.965 0 8.87 0h32.35c4.904 0 8.869 3.978 8.869 8.9v31.2c0 4.922-3.965 8.9-8.87 8.9Z" fill="#FF26BE"/><path d="M40.426 46.906H9.663c-4.173 0-7.575-3.414-7.575-7.601V9.695c0-4.187 3.402-7.6 7.575-7.6h30.743c4.195 0 7.575 3.413 7.575 7.6v29.59c.02 4.207-3.382 7.62-7.555 7.62Z" fill="#2E001F"/><path d="m19.804 22.929 5.845 11.265c.104.167.042.336-.127.336H21.89c-.23 0-.335-.062-.439-.271-1.336-2.764-2.692-5.529-4.091-8.502h-.042a319.37 319.37 0 0 1-3.965 8.524c-.104.167-.208.231-.377.231h-3.44c-.208 0-.23-.167-.124-.294l5.718-10.931L9.6 12.23c-.126-.167 0-.293.124-.293h3.59c.21 0 .293.042.376.231a440.541 440.541 0 0 1 3.902 8.397h.043c1.21-2.764 2.546-5.633 3.84-8.377.104-.167.167-.271.377-.271h3.36c.166 0 .23.126.126.293L19.804 22.93Zm6.869 3.413c0-4.878 3.235-8.69 8.368-8.69.44 0 .668 0 1.086.042v-5.548c0-.127.104-.21.209-.21h3.298c.166 0 .208.063.208.168v19.224c0 .565 0 1.276.104 2.052 0 .127-.042.167-.166.231a12.39 12.39 0 0 1-5.344 1.215c-4.53.018-7.765-2.787-7.763-8.484Zm9.452-5.359c-.292-.127-.709-.21-1.21-.21-2.63 0-4.466 2.031-4.466 5.404 0 3.854 1.88 5.404 4.238 5.404.5 0 1.044-.062 1.44-.231V20.983h-.002Z" fill="#FFD9F2"/></svg>