<svg width="33" height="49" fill="none" xmlns="http://www.w3.org/2000/svg"><path d="M8.167 49a8.17 8.17 0 0 0 8.166-8.167v-8.166H8.167A8.17 8.17 0 0 0 0 40.833 8.17 8.17 0 0 0 8.167 49Z" fill="#0EC878"/><path d="M0 24.5a8.17 8.17 0 0 1 8.167-8.167h8.166v16.334H8.167A8.17 8.17 0 0 1 0 24.5Z" fill="#974FFF"/><path d="M0 8.167A8.17 8.17 0 0 1 8.167 0h8.166v16.333H8.167A8.17 8.17 0 0 1 0 8.167Z" fill="#F0441C"/><path d="M16.334 0h8.167a8.17 8.17 0 0 1 8.166 8.167 8.17 8.17 0 0 1-8.166 8.166h-8.167V0Z" fill="#FF6657"/><path d="M32.667 24.5a8.17 8.17 0 0 1-8.166 8.167 8.17 8.17 0 0 1-8.167-8.167 8.17 8.17 0 0 1 8.167-8.167 8.17 8.17 0 0 1 8.166 8.167Z" fill="#18B4FE"/></svg>