<svg width="51" height="49" fill="none" xmlns="http://www.w3.org/2000/svg"><path d="M1 9a8 8 0 0 1 8-8h32.206a8 8 0 0 1 8 8v31a8 8 0 0 1-8 8H9a8 8 0 0 1-8-8V9Z" fill="url(#a)" stroke="#31C5F0" stroke-width="2"/><path d="M34.405 21.134c-1.803 0-2.42.916-2.42 1.672 0 .824.412 1.396 2.83 2.656 3.584 1.74 4.702 3.411 4.702 5.861 0 3.664-2.784 5.633-6.55 5.633-1.985 0-3.697-.412-4.678-.984-.16-.07-.183-.184-.183-.367V32.24c0-.229.114-.297.274-.183a8.45 8.45 0 0 0 4.587 1.351c1.803 0 2.556-.755 2.556-1.786 0-.824-.525-1.557-2.83-2.748-3.24-1.556-4.587-3.136-4.587-5.77 0-2.953 2.305-5.403 6.299-5.403 1.962 0 3.332.297 4.085.64.182.115.228.298.228.459v3.137c0 .183-.114.297-.342.229-1.004-.642-2.488-1.03-3.971-1.03ZM14.779 23.86c.525.046.936.046 1.848.046 2.67 0 5.18-.939 5.18-4.58 0-2.907-1.802-4.373-4.837-4.373-.913 0-1.78.046-2.191.069v8.838Zm-4.062-12.158c0-.16.32-.275.502-.275 1.46-.069 3.629-.115 5.888-.115 6.321 0 8.786 3.48 8.786 7.923 0 5.816-4.2 8.311-9.357 8.311-.867 0-1.164-.045-1.78-.045v8.792c0 .183-.068.275-.274.275h-3.491c-.183 0-.274-.069-.274-.275V11.701Z" fill="#31C5F0"/><defs><radialGradient id="a" cx="0" cy="0" r="1" gradientUnits="userSpaceOnUse" gradientTransform="matrix(38.1565 0 0 37.066 16.535 10.98)"><stop stop-color="#34364E" stop-opacity=".98"/><stop offset="1" stop-color="#0C0824"/></radialGradient></defs></svg>